<svg xmlns="http://www.w3.org/2000/svg" viewBox="0 0 64 64"><rect width="64" height="64" rx="10" fill="#fff"/><g transform="translate(5.5 9.5) scale(0.0435)"><path fill="#909090" transform="translate(-332 -412)" d="M380 460H442V1280A69 69 0 0 0 580 1280V460H823L972 1023L1123 460H1356V1280A69 69 0 0 0 1494 1280V460H1550V1437H1240V1085L1260 776L1076 1437H831L648 777L668 1085V1437H380Z"/><path fill="#000" transform="translate(-360 -440)" d="M380 460H442V1280A69 69 0 0 0 580 1280V460H823L972 1023L1123 460H1356V1280A69 69 0 0 0 1494 1280V460H1550V1437H1240V1085L1260 776L1076 1437H831L648 777L668 1085V1437H380Z"/><rect fill="#fff" x="506" y="689" width="199" height="38"/><rect fill="#fff" x="506" y="775" width="199" height="38"/></g></svg>
